<svg width="120" height="66" viewBox="0 0 120 66" fill="none" xmlns="http://www.w3.org/2000/svg">
<g filter="url(#filter0_f)">
<path d="M21 8.33472L6 33.3347L21 58.3347" stroke="#EAFF00" stroke-opacity="0.8" stroke-width="6" stroke-linecap="round" stroke-linejoin="round"/>
</g>
<path d="M21 8.33472L6 33.3347L21 58.3347" stroke="#EAFF00" stroke-width="4" stroke-linecap="round" stroke-linejoin="round"/>
<path d="M21 8.33472L6 33.3347L21 58.3347" stroke="black" stroke-width="2" stroke-linecap="round" stroke-linejoin="round"/>
<g filter="url(#filter1_f)">
<path d="M99.0005 58.3347L114 33.3347L99.0005 8.33472" stroke="#EAFF00" stroke-opacity="0.8" stroke-width="6" stroke-linecap="round" stroke-linejoin="round"/>
</g>
<path d="M99.0005 58.3347L114 33.3347L99.0005 8.33472" stroke="#EAFF00" stroke-width="4" stroke-linecap="round" stroke-linejoin="round"/>
<path d="M99.0005 58.3347L114 33.3347L99.0005 8.33472" stroke="black" stroke-width="2" stroke-linecap="round" stroke-linejoin="round"/>
<g filter="url(#filter2_f)">
<path d="M56.6657 34C56.7968 33.9035 58.3364 32.3819 58.3364 32.3819L56.6657 34ZM56.6657 34C56.8263 35.5636 56.954 37.1712 57.6657 38C58.7574 39.4329 60.3718 39.5657 62.4527 39.6804L70.6657 32M58.345 32.3923C58.345 32.3923 66.7931 25.0084 67.4493 24.5973C69.3296 23.4193 71.6657 23 73.4648 23.3515C74.6657 25 73.8173 28.5184 71.6657 31L70.6657 32M70.6657 32C70.5249 33.425 71.0976 35.7841 69.6657 38.3544L46.3393 58.3515" stroke="#EAFF00" stroke-opacity="0.8" stroke-width="6" stroke-linecap="round" stroke-linejoin="round"/>
</g>
<g filter="url(#filter3_f)">
<path d="M75.6657 44C76.8517 42.6321 78.413 39.5809 78.3818 37.5438L75.6657 44ZM75.6657 44C75.6657 45.3544 76.1686 48.2699 74.8965 51C73.0054 54.261 71.9991 54.3196 68.6657 58.3196M75.6657 44L68.1273 51C66.0465 50.8853 64.4321 50.7525 63.3404 49.3196C62.6657 48 62.4655 46.5637 62.3049 45M69.1114 39C70.1528 38.3476 73.1044 35.8473 75.0325 35.4372L69.1114 39Z" stroke="#EAFF00" stroke-opacity="0.8" stroke-width="6" stroke-linecap="round" stroke-linejoin="round"/>
</g>
<g filter="url(#filter4_f)">
<path d="M27.6657 43L53.9708 21C55.3288 20 59.0003 18.8581 60.4648 19.3515C61.6657 21 60.8173 24.5184 58.6657 27L57.6657 28M57.6657 28C57.6657 29.2869 58.193 30 56.7956 32L27.6657 56.6094M57.6657 28L49.4527 35.6804C47.3718 35.5657 45.7574 35.4329 44.6657 34C43.954 33.1712 43.8263 31.5637 43.6657 30" stroke="#EAFF00" stroke-opacity="0.8" stroke-width="6" stroke-linecap="round" stroke-linejoin="round"/>
</g>
<g filter="url(#filter5_f)">
<path d="M83.2926 9.4852C86.299 10.9237 90.0962 10.8722 91.8611 10.5984L92.6657 8M80.2126 8C81.2914 8.77414 83.2746 9.49858 83.2746 9.49858L80.2126 8ZM87.0632 10.606C87.1427 10.8509 82.0189 28.815 82.0436 28.752L79.083 28.0522C79.083 28.0522 82.0189 28.7539 82.0189 28.815C82.0182 36.2475 74.4325 41.4334 71.8269 40.5483C71.8269 40.5483 75.4571 35.5375 75.6657 34.4546C76.5332 29.4687 77.9327 29.801 79.1188 28L83.2926 9.4852L87.0632 10.606Z" stroke="#EAFF00" stroke-opacity="0.8" stroke-width="6" stroke-linecap="round" stroke-linejoin="round"/>
</g>
<path d="M56.6657 34C56.7968 33.9035 58.3364 32.3819 58.3364 32.3819L56.6657 34ZM56.6657 34C56.8263 35.5636 56.954 37.1712 57.6657 38C58.7574 39.4329 60.3718 39.5657 62.4527 39.6804L70.6657 32M56.9133 32.2093C57.1558 31.9941 58.345 32.3923 58.345 32.3923C58.345 32.3923 66.7931 25.0084 67.4493 24.5973C69.3296 23.4193 71.6657 23 73.4648 23.3515C74.6657 25 73.8173 28.5184 71.6657 31L70.6657 32M70.6657 32C70.5249 33.425 71.0976 35.7841 69.6657 38.3544L46.3393 58.3515" stroke="#EAFF00" stroke-width="4" stroke-linecap="round" stroke-linejoin="round"/>
<path d="M68.6657 58.3196C71.9991 54.3196 73.0054 54.261 74.8965 51C76.1686 48.2699 75.6657 45.3544 75.6657 44L68.1274 51C66.0465 50.8853 64.4321 50.7525 63.3404 49.3196C62.6657 48 62.4655 46.5637 62.3049 45M69.1114 39C70.1528 38.3476 73.1043 35.8473 75.0325 35.4372L69.1114 39ZM78.3818 37.5438C78.413 39.5809 76.8517 42.6321 75.6657 44L78.3818 37.5438Z" stroke="#EAFF00" stroke-width="4" stroke-linecap="round" stroke-linejoin="round"/>
<path d="M27.6657 43L53.9708 21C55.3288 20 59.0003 18.8581 60.4648 19.3515C61.6657 21 60.8173 24.5184 58.6657 27L57.6657 28M57.6657 28C57.6657 29.2869 58.193 30 56.7956 32L27.6657 56.6094M57.6657 28L49.4527 35.6804C47.3718 35.5657 45.7574 35.4329 44.6657 34C43.954 33.1712 43.8263 31.5637 43.6657 30" stroke="#EAFF00" stroke-width="4" stroke-linecap="round" stroke-linejoin="round"/>
<path d="M83.2926 9.4852C86.299 10.9236 90.0962 10.8722 91.8611 10.5984L92.6657 8M80.2126 8C81.2914 8.77414 83.2746 9.49859 83.2746 9.49859L80.2126 8ZM87.0632 10.606C87.1427 10.8509 82.0189 28.815 82.0436 28.752L79.083 28.0522C79.083 28.0522 82.0189 28.7539 82.0189 28.815C82.0182 36.2475 74.4325 41.4334 71.8269 40.5483C71.8269 40.5483 75.4571 35.5375 75.6657 34.4546C76.5332 29.4687 77.9327 29.801 79.1188 28L83.2926 9.4852L87.0632 10.606Z" stroke="#EAFF00" stroke-width="4" stroke-linecap="round" stroke-linejoin="round"/>
<path d="M56.6657 34C56.7968 33.9035 58.3364 32.3819 58.3364 32.3819L56.6657 34ZM56.6657 34C56.8263 35.5636 56.954 37.1712 57.6657 38C58.7574 39.4329 60.3718 39.5657 62.4527 39.6804L70.6657 32M56.9133 32.2093C57.1558 31.9941 58.345 32.3923 58.345 32.3923C58.345 32.3923 66.7931 25.0084 67.4493 24.5973C69.3296 23.4193 71.6657 23 73.4648 23.3515C74.6657 25 73.8173 28.5184 71.6657 31L70.6657 32M70.6657 32C70.5249 33.425 71.0976 35.7841 69.6657 38.3544L46.3393 58.3515" stroke="black" stroke-width="2" stroke-linecap="round" stroke-linejoin="round"/>
<path d="M68.6657 58.3196C71.9991 54.3196 73.0054 54.261 74.8965 51C76.1686 48.2699 75.6657 45.3544 75.6657 44L68.1274 51C66.0465 50.8853 64.4321 50.7525 63.3404 49.3196C62.6657 48 62.4655 46.5637 62.3049 45M69.1114 39C70.1528 38.3476 73.1043 35.8473 75.0325 35.4372L69.1114 39ZM78.3818 37.5438C78.413 39.5809 76.8517 42.6321 75.6657 44L78.3818 37.5438Z" stroke="black" stroke-width="2" stroke-linecap="round" stroke-linejoin="round"/>
<path d="M27.6657 43L53.9708 21C55.3288 20 59.0003 18.8581 60.4648 19.3515C61.6657 21 60.8173 24.5184 58.6657 27L57.6657 28M57.6657 28C57.6657 29.2869 58.193 30 56.7956 32L27.6657 56.6094M57.6657 28L49.4527 35.6804C47.3718 35.5657 45.7574 35.4329 44.6657 34C43.954 33.1712 43.8263 31.5637 43.6657 30" stroke="black" stroke-width="2" stroke-linecap="round" stroke-linejoin="round"/>
<path d="M83.2926 9.4852C86.299 10.9236 90.0962 10.8722 91.8611 10.5984L92.6657 8M80.2126 8C81.2914 8.77414 83.2746 9.49859 83.2746 9.49859L80.2126 8ZM87.0632 10.606C87.1427 10.8509 82.0189 28.815 82.0436 28.752L79.083 28.0522C79.083 28.0522 82.0189 28.7539 82.0189 28.815C82.0182 36.2475 74.4325 41.4334 71.8269 40.5483C71.8269 40.5483 75.4571 35.5375 75.6657 34.4546C76.5332 29.4687 77.9327 29.801 79.1188 28L83.2926 9.4852L87.0632 10.606Z" stroke="black" stroke-width="2" stroke-linecap="round" stroke-linejoin="round"/>
<defs>
<filter id="filter0_f" x="0.66572" y="2.99998" width="25.669" height="60.6695" filterUnits="userSpaceOnUse" color-interpolation-filters="sRGB">
<feFlood flood-opacity="0" result="BackgroundImageFix"/>
<feBlend mode="normal" in="SourceGraphic" in2="BackgroundImageFix" result="shape"/>
<feGaussianBlur stdDeviation="1.16714" result="effect1_foregroundBlur"/>
</filter>
<filter id="filter1_f" x="93.6657" y="2.99998" width="25.669" height="60.6695" filterUnits="userSpaceOnUse" color-interpolation-filters="sRGB">
<feFlood flood-opacity="0" result="BackgroundImageFix"/>
<feBlend mode="normal" in="SourceGraphic" in2="BackgroundImageFix" result="shape"/>
<feGaussianBlur stdDeviation="1.16714" result="effect1_foregroundBlur"/>
</filter>
<filter id="filter2_f" x="39.1967" y="16.0885" width="41.9578" height="49.4056" filterUnits="userSpaceOnUse" color-interpolation-filters="sRGB">
<feFlood flood-opacity="0" result="BackgroundImageFix"/>
<feBlend mode="normal" in="SourceGraphic" in2="BackgroundImageFix" result="shape"/>
<feGaussianBlur stdDeviation="2.07125" result="effect1_foregroundBlur"/>
</filter>
<filter id="filter3_f" x="55.1622" y="28.2944" width="30.3626" height="37.1678" filterUnits="userSpaceOnUse" color-interpolation-filters="sRGB">
<feFlood flood-opacity="0" result="BackgroundImageFix"/>
<feBlend mode="normal" in="SourceGraphic" in2="BackgroundImageFix" result="shape"/>
<feGaussianBlur stdDeviation="2.07125" result="effect1_foregroundBlur"/>
</filter>
<filter id="filter4_f" x="20.5231" y="12.0901" width="47.6314" height="51.6618" filterUnits="userSpaceOnUse" color-interpolation-filters="sRGB">
<feFlood flood-opacity="0" result="BackgroundImageFix"/>
<feBlend mode="normal" in="SourceGraphic" in2="BackgroundImageFix" result="shape"/>
<feGaussianBlur stdDeviation="2.07125" result="effect1_foregroundBlur"/>
</filter>
<filter id="filter5_f" x="64.6844" y="0.856702" width="35.1246" height="46.9328" filterUnits="userSpaceOnUse" color-interpolation-filters="sRGB">
<feFlood flood-opacity="0" result="BackgroundImageFix"/>
<feBlend mode="normal" in="SourceGraphic" in2="BackgroundImageFix" result="shape"/>
<feGaussianBlur stdDeviation="2.07125" result="effect1_foregroundBlur"/>
</filter>
</defs>
</svg>
